<?xml version="1.0" encoding="UTF-8" standalone="no"?>
<!DOCTYPE svg PUBLIC "-//W3C//DTD SVG 1.1//EN"
 "http://www.w3.org/Graphics/SVG/1.1/DTD/svg11.dtd">
<!-- Generated by graphviz version 2.47.0 (20210316.0004)
 -->
<!-- Title: dependencies Pages: 1 -->
<svg width="2042pt" height="363pt"
 viewBox="0.00 0.00 2042.00 363.00" xmlns="http://www.w3.org/2000/svg" xmlns:xlink="http://www.w3.org/1999/xlink">
<g id="graph0" class="graph" transform="scale(1 1) rotate(0) translate(4 359)">
<title>dependencies</title>
<polygon fill="white" stroke="transparent" points="-4,4 -4,-359 2038,-359 2038,4 -4,4"/>
<text text-anchor="start" x="996.01" y="-42.4" font-family="Times-12" font-weight="bold" font-size="14.00">Legend</text>
<polygon fill="#ffffb3" stroke="transparent" points="783,-10 783,-30 803,-30 803,-10 783,-10"/>
<text text-anchor="start" x="806.63" y="-15.4" font-family="Times-12" font-size="14.00"> &#160;Declarations</text>
<polygon fill="#8dd3c7" stroke="transparent" points="896,-10 896,-30 916,-30 916,-10 896,-10"/>
<text text-anchor="start" x="919.73" y="-15.4" font-family="Times-12" font-size="14.00"> &#160;Module</text>
<polygon fill="#80b1d3" stroke="transparent" points="982,-10 982,-30 1002,-30 1002,-10 982,-10"/>
<text text-anchor="start" x="1005.78" y="-15.4" font-family="Times-12" font-size="14.00"> &#160;Bootstrap</text>
<polygon fill="#fdb462" stroke="transparent" points="1079,-10 1079,-30 1099,-30 1099,-10 1079,-10"/>
<text text-anchor="start" x="1102.67" y="-15.4" font-family="Times-12" font-size="14.00"> &#160;Providers</text>
<polygon fill="#fb8072" stroke="transparent" points="1175,-10 1175,-30 1195,-30 1195,-10 1175,-10"/>
<text text-anchor="start" x="1198.73" y="-15.4" font-family="Times-12" font-size="14.00"> &#160;Exports</text>
<g id="clust7" class="cluster">
<title>cluster_AuthModule</title>
<polygon fill="none" stroke="black" stroke-dasharray="1,5" points="8,-146 8,-347 400,-347 400,-146 8,-146"/>
</g>
<g id="clust9" class="cluster">
<title>cluster_AuthModule_imports</title>
<polygon fill="none" stroke="black" points="290,-154 290,-206 392,-206 392,-154 290,-154"/>
</g>
<g id="clust10" class="cluster">
<title>cluster_AuthModule_exports</title>
<polygon fill="none" stroke="black" points="162,-287 162,-339 268,-339 268,-287 162,-287"/>
</g>
<g id="clust12" class="cluster">
<title>cluster_AuthModule_providers</title>
<polygon fill="none" stroke="black" points="16,-154 16,-206 282,-206 282,-154 16,-154"/>
</g>
<g id="clust13" class="cluster">
<title>cluster_HistorialModule</title>
<polygon fill="none" stroke="black" stroke-dasharray="1,5" points="423,-70 423,-206 603,-206 603,-70 423,-70"/>
</g>
<g id="clust18" class="cluster">
<title>cluster_HistorialModule_providers</title>
<polygon fill="none" stroke="black" points="431,-78 431,-130 595,-130 595,-78 431,-78"/>
</g>
<g id="clust19" class="cluster">
<title>cluster_MessageModule</title>
<polygon fill="none" stroke="black" stroke-dasharray="1,5" points="611,-70 611,-206 791,-206 791,-70 611,-70"/>
</g>
<g id="clust24" class="cluster">
<title>cluster_MessageModule_providers</title>
<polygon fill="none" stroke="black" points="619,-78 619,-130 783,-130 783,-78 619,-78"/>
</g>
<g id="clust25" class="cluster">
<title>cluster_NotificationModule</title>
<polygon fill="none" stroke="black" stroke-dasharray="1,5" points="799,-70 799,-206 1005,-206 1005,-70 799,-70"/>
</g>
<g id="clust30" class="cluster">
<title>cluster_NotificationModule_providers</title>
<polygon fill="none" stroke="black" points="807,-78 807,-130 997,-130 997,-78 807,-78"/>
</g>
<g id="clust31" class="cluster">
<title>cluster_TemplatePlaygroundModule</title>
<polygon fill="none" stroke="black" stroke-dasharray="1,5" points="1013,-70 1013,-279 1830,-279 1830,-70 1013,-70"/>
</g>
<g id="clust32" class="cluster">
<title>cluster_TemplatePlaygroundModule_declarations</title>
<polygon fill="none" stroke="black" points="1608,-78 1608,-130 1822,-130 1822,-78 1608,-78"/>
</g>
<g id="clust36" class="cluster">
<title>cluster_TemplatePlaygroundModule_bootstrap</title>
<polygon fill="none" stroke="black" points="1299,-219 1299,-271 1517,-271 1517,-219 1299,-219"/>
</g>
<g id="clust37" class="cluster">
<title>cluster_TemplatePlaygroundModule_providers</title>
<polygon fill="none" stroke="black" points="1021,-78 1021,-130 1600,-130 1600,-78 1021,-78"/>
</g>
<g id="clust38" class="cluster">
<title>cluster_UserModule</title>
<polygon fill="none" stroke="black" stroke-dasharray="1,5" points="267,-70 267,-138 415,-138 415,-70 267,-70"/>
</g>
<g id="clust43" class="cluster">
<title>cluster_UserModule_providers</title>
<polygon fill="none" stroke="black" points="275,-78 275,-130 407,-130 407,-78 275,-78"/>
</g>
<g id="clust44" class="cluster">
<title>cluster_WiseChatModule</title>
<polygon fill="none" stroke="black" stroke-dasharray="1,5" points="1838,-70 1838,-206 2026,-206 2026,-70 1838,-70"/>
</g>
<g id="clust49" class="cluster">
<title>cluster_WiseChatModule_providers</title>
<polygon fill="none" stroke="black" points="1846,-78 1846,-130 2018,-130 2018,-78 1846,-78"/>
</g>
<!-- UserModule -->
<g id="node1" class="node">
<title>UserModule</title>
<polygon fill="#8dd3c7" stroke="black" points="383.98,-198 380.98,-202 359.98,-202 356.98,-198 298.02,-198 298.02,-162 383.98,-162 383.98,-198"/>
<text text-anchor="middle" x="341" y="-175.8" font-family="Times,serif" font-size="14.00">UserModule</text>
</g>
<!-- AuthModule -->
<g id="node2" class="node">
<title>AuthModule</title>
<polygon fill="#8dd3c7" stroke="black" points="258.55,-263 255.55,-267 234.55,-267 231.55,-263 171.45,-263 171.45,-227 258.55,-227 258.55,-263"/>
<text text-anchor="middle" x="215" y="-240.8" font-family="Times,serif" font-size="14.00">AuthModule</text>
</g>
<!-- UserModule&#45;&gt;AuthModule -->
<g id="edge1" class="edge">
<title>UserModule&#45;&gt;AuthModule</title>
<path fill="none" stroke="black" d="M341,-198.11C341,-217.34 341,-245 341,-245 341,-245 268.72,-245 268.72,-245"/>
<polygon fill="black" stroke="black" points="268.72,-241.5 258.72,-245 268.72,-248.5 268.72,-241.5"/>
</g>
<!-- AuthService  -->
<g id="node3" class="node">
<title>AuthService </title>
<polygon fill="#fb8072" stroke="black" points="259.98,-331 170.02,-331 170.02,-295 259.98,-295 259.98,-331"/>
<text text-anchor="middle" x="215" y="-308.8" font-family="Times,serif" font-size="14.00">AuthService </text>
</g>
<!-- AuthModule&#45;&gt;AuthService  -->
<g id="edge2" class="edge">
<title>AuthModule&#45;&gt;AuthService </title>
<path fill="none" stroke="black" stroke-dasharray="5,2" d="M215,-263.22C215,-263.22 215,-284.73 215,-284.73"/>
<polygon fill="black" stroke="black" points="211.5,-284.73 215,-294.73 218.5,-284.73 211.5,-284.73"/>
</g>
<!-- AuthService -->
<g id="node4" class="node">
<title>AuthService</title>
<ellipse fill="#fdb462" stroke="black" cx="215" cy="-180" rx="59.11" ry="18"/>
<text text-anchor="middle" x="215" y="-175.8" font-family="Times,serif" font-size="14.00">AuthService</text>
</g>
<!-- AuthService&#45;&gt;AuthModule -->
<g id="edge3" class="edge">
<title>AuthService&#45;&gt;AuthModule</title>
<path fill="none" stroke="black" d="M215,-198.11C215,-198.11 215,-216.99 215,-216.99"/>
<polygon fill="black" stroke="black" points="211.5,-216.99 215,-226.99 218.5,-216.99 211.5,-216.99"/>
</g>
<!-- JwtStrategy -->
<g id="node5" class="node">
<title>JwtStrategy</title>
<ellipse fill="#fdb462" stroke="black" cx="81" cy="-180" rx="56.76" ry="18"/>
<text text-anchor="middle" x="81" y="-175.8" font-family="Times,serif" font-size="14.00">JwtStrategy</text>
</g>
<!-- JwtStrategy&#45;&gt;AuthModule -->
<g id="edge4" class="edge">
<title>JwtStrategy&#45;&gt;AuthModule</title>
<path fill="none" stroke="black" d="M81,-198.11C81,-217.34 81,-245 81,-245 81,-245 161.12,-245 161.12,-245"/>
<polygon fill="black" stroke="black" points="161.12,-248.5 171.12,-245 161.12,-241.5 161.12,-248.5"/>
</g>
<!-- HistorialService -->
<g id="node6" class="node">
<title>HistorialService</title>
<ellipse fill="#fdb462" stroke="black" cx="513" cy="-104" rx="73.57" ry="18"/>
<text text-anchor="middle" x="513" y="-99.8" font-family="Times,serif" font-size="14.00">HistorialService</text>
</g>
<!-- HistorialModule -->
<g id="node7" class="node">
<title>HistorialModule</title>
<polygon fill="#8dd3c7" stroke="black" points="567.04,-198 564.04,-202 543.04,-202 540.04,-198 458.96,-198 458.96,-162 567.04,-162 567.04,-198"/>
<text text-anchor="middle" x="513" y="-175.8" font-family="Times,serif" font-size="14.00">HistorialModule</text>
</g>
<!-- HistorialService&#45;&gt;HistorialModule -->
<g id="edge5" class="edge">
<title>HistorialService&#45;&gt;HistorialModule</title>
<path fill="none" stroke="black" d="M513,-122.01C513,-122.01 513,-151.85 513,-151.85"/>
<polygon fill="black" stroke="black" points="509.5,-151.85 513,-161.85 516.5,-151.85 509.5,-151.85"/>
</g>
<!-- MessageService -->
<g id="node8" class="node">
<title>MessageService</title>
<ellipse fill="#fdb462" stroke="black" cx="701" cy="-104" rx="73.55" ry="18"/>
<text text-anchor="middle" x="701" y="-99.8" font-family="Times,serif" font-size="14.00">MessageService</text>
</g>
<!-- MessageModule -->
<g id="node9" class="node">
<title>MessageModule</title>
<polygon fill="#8dd3c7" stroke="black" points="755.03,-198 752.03,-202 731.03,-202 728.03,-198 646.97,-198 646.97,-162 755.03,-162 755.03,-198"/>
<text text-anchor="middle" x="701" y="-175.8" font-family="Times,serif" font-size="14.00">MessageModule</text>
</g>
<!-- MessageService&#45;&gt;MessageModule -->
<g id="edge6" class="edge">
<title>MessageService&#45;&gt;MessageModule</title>
<path fill="none" stroke="black" d="M701,-122.01C701,-122.01 701,-151.85 701,-151.85"/>
<polygon fill="black" stroke="black" points="697.5,-151.85 701,-161.85 704.5,-151.85 697.5,-151.85"/>
</g>
<!-- NotificationService -->
<g id="node10" class="node">
<title>NotificationService</title>
<ellipse fill="#fdb462" stroke="black" cx="902" cy="-104" rx="86.81" ry="18"/>
<text text-anchor="middle" x="902" y="-99.8" font-family="Times,serif" font-size="14.00">NotificationService</text>
</g>
<!-- NotificationModule -->
<g id="node11" class="node">
<title>NotificationModule</title>
<polygon fill="#8dd3c7" stroke="black" points="965.7,-198 962.7,-202 941.7,-202 938.7,-198 838.3,-198 838.3,-162 965.7,-162 965.7,-198"/>
<text text-anchor="middle" x="902" y="-175.8" font-family="Times,serif" font-size="14.00">NotificationModule</text>
</g>
<!-- NotificationService&#45;&gt;NotificationModule -->
<g id="edge7" class="edge">
<title>NotificationService&#45;&gt;NotificationModule</title>
<path fill="none" stroke="black" d="M902,-122.01C902,-122.01 902,-151.85 902,-151.85"/>
<polygon fill="black" stroke="black" points="898.5,-151.85 902,-161.85 905.5,-151.85 898.5,-151.85"/>
</g>
<!-- TemplatePlaygroundComponent -->
<g id="node12" class="node">
<title>TemplatePlaygroundComponent</title>
<polygon fill="#ffffb3" stroke="black" points="1814.25,-122 1615.75,-122 1615.75,-86 1814.25,-86 1814.25,-122"/>
<text text-anchor="middle" x="1715" y="-99.8" font-family="Times,serif" font-size="14.00">TemplatePlaygroundComponent</text>
</g>
<!-- TemplatePlaygroundModule -->
<g id="node13" class="node">
<title>TemplatePlaygroundModule</title>
<polygon fill="#8dd3c7" stroke="black" points="1496.47,-198 1493.47,-202 1472.47,-202 1469.47,-198 1319.53,-198 1319.53,-162 1496.47,-162 1496.47,-198"/>
<text text-anchor="middle" x="1408" y="-175.8" font-family="Times,serif" font-size="14.00">TemplatePlaygroundModule</text>
</g>
<!-- TemplatePlaygroundComponent&#45;&gt;TemplatePlaygroundModule -->
<g id="edge8" class="edge">
<title>TemplatePlaygroundComponent&#45;&gt;TemplatePlaygroundModule</title>
<path fill="none" stroke="black" d="M1715,-122.01C1715,-144.49 1715,-180 1715,-180 1715,-180 1506.8,-180 1506.8,-180"/>
<polygon fill="black" stroke="black" points="1506.8,-176.5 1496.8,-180 1506.8,-183.5 1506.8,-176.5"/>
</g>
<!-- TemplatePlaygroundComponent  -->
<g id="node14" class="node">
<title>TemplatePlaygroundComponent </title>
<polygon fill="#80b1d3" stroke="black" points="1509.25,-263 1306.75,-263 1306.75,-227 1509.25,-227 1509.25,-263"/>
<text text-anchor="middle" x="1408" y="-240.8" font-family="Times,serif" font-size="14.00">TemplatePlaygroundComponent </text>
</g>
<!-- TemplatePlaygroundModule&#45;&gt;TemplatePlaygroundComponent  -->
<g id="edge9" class="edge">
<title>TemplatePlaygroundModule&#45;&gt;TemplatePlaygroundComponent </title>
<path fill="none" stroke="black" stroke-dasharray="1,5" d="M1408,-198.11C1408,-198.11 1408,-216.99 1408,-216.99"/>
<polygon fill="black" stroke="black" points="1404.5,-216.99 1408,-226.99 1411.5,-216.99 1404.5,-216.99"/>
</g>
<!-- HbsRenderService -->
<g id="node15" class="node">
<title>HbsRenderService</title>
<ellipse fill="#fdb462" stroke="black" cx="1509" cy="-104" rx="83.37" ry="18"/>
<text text-anchor="middle" x="1509" y="-99.8" font-family="Times,serif" font-size="14.00">HbsRenderService</text>
</g>
<!-- HbsRenderService&#45;&gt;TemplatePlaygroundModule -->
<g id="edge10" class="edge">
<title>HbsRenderService&#45;&gt;TemplatePlaygroundModule</title>
<path fill="none" stroke="black" d="M1461.03,-119.02C1461.03,-119.02 1461.03,-151.8 1461.03,-151.8"/>
<polygon fill="black" stroke="black" points="1457.53,-151.8 1461.03,-161.8 1464.53,-151.8 1457.53,-151.8"/>
</g>
<!-- TemplateEditorService -->
<g id="node16" class="node">
<title>TemplateEditorService</title>
<ellipse fill="#fdb462" stroke="black" cx="1307" cy="-104" rx="100.7" ry="18"/>
<text text-anchor="middle" x="1307" y="-99.8" font-family="Times,serif" font-size="14.00">TemplateEditorService</text>
</g>
<!-- TemplateEditorService&#45;&gt;TemplatePlaygroundModule -->
<g id="edge11" class="edge">
<title>TemplateEditorService&#45;&gt;TemplatePlaygroundModule</title>
<path fill="none" stroke="black" d="M1363.56,-119.02C1363.56,-119.02 1363.56,-151.8 1363.56,-151.8"/>
<polygon fill="black" stroke="black" points="1360.06,-151.8 1363.56,-161.8 1367.06,-151.8 1360.06,-151.8"/>
</g>
<!-- ZipExportService -->
<g id="node17" class="node">
<title>ZipExportService</title>
<ellipse fill="#fdb462" stroke="black" cx="1109" cy="-104" rx="79.87" ry="18"/>
<text text-anchor="middle" x="1109" y="-99.8" font-family="Times,serif" font-size="14.00">ZipExportService</text>
</g>
<!-- ZipExportService&#45;&gt;TemplatePlaygroundModule -->
<g id="edge12" class="edge">
<title>ZipExportService&#45;&gt;TemplatePlaygroundModule</title>
<path fill="none" stroke="black" d="M1109,-122.01C1109,-144.49 1109,-180 1109,-180 1109,-180 1309.5,-180 1309.5,-180"/>
<polygon fill="black" stroke="black" points="1309.5,-183.5 1319.5,-180 1309.5,-176.5 1309.5,-183.5"/>
</g>
<!-- UserService -->
<g id="node18" class="node">
<title>UserService</title>
<ellipse fill="#fdb462" stroke="black" cx="341" cy="-104" rx="58.44" ry="18"/>
<text text-anchor="middle" x="341" y="-99.8" font-family="Times,serif" font-size="14.00">UserService</text>
</g>
<!-- UserService&#45;&gt;UserModule -->
<g id="edge13" class="edge">
<title>UserService&#45;&gt;UserModule</title>
<path fill="none" stroke="black" d="M341,-122.01C341,-122.01 341,-151.85 341,-151.85"/>
<polygon fill="black" stroke="black" points="337.5,-151.85 341,-161.85 344.5,-151.85 337.5,-151.85"/>
</g>
<!-- WiseChatService -->
<g id="node19" class="node">
<title>WiseChatService</title>
<ellipse fill="#fdb462" stroke="black" cx="1932" cy="-104" rx="78.14" ry="18"/>
<text text-anchor="middle" x="1932" y="-99.8" font-family="Times,serif" font-size="14.00">WiseChatService</text>
</g>
<!-- WiseChatModule -->
<g id="node20" class="node">
<title>WiseChatModule</title>
<polygon fill="#8dd3c7" stroke="black" points="1989.26,-198 1986.26,-202 1965.26,-202 1962.26,-198 1874.74,-198 1874.74,-162 1989.26,-162 1989.26,-198"/>
<text text-anchor="middle" x="1932" y="-175.8" font-family="Times,serif" font-size="14.00">WiseChatModule</text>
</g>
<!-- WiseChatService&#45;&gt;WiseChatModule -->
<g id="edge14" class="edge">
<title>WiseChatService&#45;&gt;WiseChatModule</title>
<path fill="none" stroke="black" d="M1932,-122.01C1932,-122.01 1932,-151.85 1932,-151.85"/>
<polygon fill="black" stroke="black" points="1928.5,-151.85 1932,-161.85 1935.5,-151.85 1928.5,-151.85"/>
</g>
</g>
</svg>
